
		<svg xmlns="http://www.w3.org/2000/svg" xmlns:xlink="http://www.w3.org/1999/xlink" version="1.1" width="2214.7651006711408" height="3201.3422818791946">
			
			<g transform="scale(10.06711409395973) translate(10, 10)">
				<defs id="SvgjsDefs4868"></defs><g id="SvgjsG4869" featureKey="root" fill="#ffffff"></g><g id="SvgjsG4870" featureKey="container1" fill="#000000" transform="matrix(0.6488285609303305,0,0,0.6488285609303305,36,0)"><defs xmlns="http://www.w3.org/2000/svg"></defs><g xmlns="http://www.w3.org/2000/svg">  <path d="M98.254,0C44.077,0,0,44.076,0,98.254s44.077,98.254,98.254,98.254c54.177,0,98.254-44.076,98.254-98.254    S152.431,0,98.254,0z M98.254,195.508C44.628,195.508,1,151.88,1,98.254S44.628,1,98.254,1c53.626,0,97.254,43.628,97.254,97.254    S151.88,195.508,98.254,195.508z"></path>  <path d="M98.254,5.453c-51.171,0-92.801,41.63-92.801,92.801s41.63,92.801,92.801,92.801s92.802-41.63,92.802-92.801    S149.425,5.453,98.254,5.453z"></path></g></g><g id="SvgjsG4871" featureKey="symbol1" fill="#ffffff" transform="matrix(1.1289866760588105,0,0,1.1289866760588105,43.53655084888907,7.178664604942949)"><path xmlns="http://www.w3.org/2000/svg" d="M93,46.9L74.7,28.6c-0.8-0.8-1.9-1.3-3.1-1.3c-1.2,0-2.3,0.5-3.1,1.3l-7.7,7.7l-7.7-7.7c-0.8-0.8-1.9-1.3-3.1-1.3  c-1.2,0-2.3,0.5-3.1,1.3l-7.7,7.7l-7.7-7.7c-0.8-0.8-1.9-1.3-3.1-1.3s-2.3,0.5-3.1,1.3L7,46.9c-1.7,1.7-1.7,4.5,0,6.2l18.3,18.3  c0.8,0.8,1.9,1.3,3.1,1.3s2.3-0.5,3.1-1.3l7.7-7.7l7.7,7.7c0.8,0.8,1.9,1.3,3.1,1.3c1.2,0,2.3-0.5,3.1-1.3l7.7-7.7l7.7,7.7  c0.8,0.8,1.9,1.3,3.1,1.3c1.2,0,2.3-0.5,3.1-1.3L93,53.1c0.8-0.8,1.3-1.9,1.3-3.1S93.8,47.7,93,46.9z M60.8,60.8l-9.1-9.1  c-0.4-0.4-0.7-1-0.7-1.7s0.2-1.2,0.7-1.7l9.1-9.1l9.1,9.1c0.9,0.9,0.9,2.4,0,3.3L60.8,60.8z M48.3,48.3c0.4,0.4,0.7,1,0.7,1.7  s-0.2,1.2-0.7,1.7l-9.1,9.1L30,51.7c-0.9-0.9-0.9-2.4,0-3.3l9.1-9.1L48.3,48.3z"></path></g><g id="SvgjsG4872" featureKey="text1" fill="#84386c" transform="matrix(4.4679007263082715,0,0,4.4679007263082715,-2.9320603842550748,130.6772716190456)"><path d="M11.4 12.42 c1.14 0.72 1.76 1.78 1.76 3.06 c0 1.5 -0.58 2.66 -1.72 3.46 c-0.8 0.58 -1.86 0.92 -3.14 1.06 l-0.08 0 c-0.16 0 -0.34 -0.06 -0.46 -0.18 c-0.16 -0.14 -0.24 -0.32 -0.24 -0.52 l0 -1.44 c0 -0.36 0.28 -0.66 0.62 -0.7 c2.08 -0.24 2.08 -1.2 2.08 -1.62 c0 -0.3 -0.1 -0.5 -0.36 -0.68 c-0.4 -0.28 -0.9 -0.5 -1.5 -0.68 c-0.1 -0.02 -0.18 -0.06 -0.26 -0.08 l-0.06 -0.02 c-0.58 -0.16 -1.2 -0.32 -1.84 -0.46 c-0.24 -0.04 -0.5 -0.12 -0.8 -0.2 c-0.54 -0.14 -1.06 -0.32 -1.52 -0.5 c-0.76 -0.32 -1.42 -0.74 -1.94 -1.26 c-0.58 -0.58 -0.88 -1.36 -0.88 -2.32 c0 -1.32 0.52 -2.4 1.52 -3.22 c0.72 -0.6 1.7 -0.96 2.92 -1.12 c0.2 -0.02 0.4 0.04 0.56 0.18 c0.14 0.14 0.22 0.32 0.22 0.52 l0 1.44 c0 0.34 -0.24 0.64 -0.58 0.7 c-0.2 0.02 -0.36 0.06 -0.5 0.1 c-0.38 0.14 -0.66 0.28 -0.84 0.44 c-0.16 0.14 -0.26 0.28 -0.32 0.42 c-0.06 0.2 -0.1 0.42 -0.1 0.64 c0 0.06 0 0.16 0.18 0.34 c0.2 0.2 0.48 0.36 0.82 0.5 c0.24 0.1 0.54 0.2 0.84 0.3 c0.18 0.04 0.36 0.1 0.54 0.14 c0.56 0.14 1.12 0.28 1.7 0.42 c0.08 0.02 0.16 0.04 0.26 0.06 l0.12 0.04 c0.52 0.14 0.96 0.26 1.36 0.4 c0.6 0.2 1.16 0.46 1.64 0.78 z M8.06 7.9 c-0.32 -0.08 -0.54 -0.36 -0.54 -0.7 l0 -1.46 c0 -0.2 0.1 -0.4 0.26 -0.54 c0.14 -0.12 0.36 -0.18 0.56 -0.14 c1.16 0.18 2.12 0.58 2.86 1.2 c1 0.82 1.54 1.88 1.6 3.16 c0.02 0.2 -0.06 0.38 -0.18 0.52 c-0.14 0.14 -0.32 0.22 -0.52 0.22 l-1.56 0 c-0.34 0 -0.64 -0.26 -0.68 -0.62 c-0.08 -0.5 -0.3 -1.24 -1.64 -1.62 c-0.04 0 -0.06 0 -0.08 -0.02 l-0.08 0 z M5.72 17.08 c0.34 0.06 0.56 0.36 0.56 0.68 l0 1.48 c0 0.2 -0.08 0.4 -0.24 0.54 c-0.12 0.1 -0.28 0.16 -0.46 0.16 l-0.1 0 c-1.24 -0.18 -2.28 -0.6 -3.06 -1.22 c-1.02 -0.82 -1.62 -1.98 -1.76 -3.46 c-0.02 -0.2 0.04 -0.4 0.18 -0.54 c0.14 -0.16 0.32 -0.24 0.52 -0.24 l1.58 0 c0.38 0 0.68 0.3 0.7 0.66 c0.04 0.68 0.36 1.18 0.98 1.54 c0.32 0.18 0.68 0.3 1.1 0.4 z M27.32 5 c0.38 0 0.7 0.32 0.7 0.7 l0 7.56 c0 1.94 -0.6 3.54 -1.78 4.76 c-1.18 1.2 -2.72 1.82 -4.58 1.82 s-3.38 -0.62 -4.56 -1.82 c-1.18 -1.22 -1.78 -2.82 -1.78 -4.76 l0 -7.56 c0 -0.38 0.32 -0.7 0.7 -0.7 l1.5 0 c0.38 0 0.7 0.32 0.7 0.7 l0 7.6 c0 1.24 0.34 2.18 1.06 2.84 c0.6 0.56 1.38 0.84 2.38 0.84 c0.98 0 1.78 -0.28 2.4 -0.84 c0.7 -0.66 1.06 -1.58 1.06 -2.84 l0 -7.6 c0 -0.38 0.3 -0.7 0.68 -0.7 l1.52 0 z M44.72 5 c0.38 0 0.7 0.32 0.7 0.7 l0 13.28 c0 0.38 -0.32 0.7 -0.7 0.7 l-1.5 0 c-0.38 0 -0.7 -0.32 -0.7 -0.7 l0 -8.96 l-3.68 4.72 c-0.12 0.16 -0.32 0.26 -0.54 0.26 l0 0 c-0.22 0 -0.42 -0.1 -0.54 -0.26 l-3.76 -4.74 l0 8.98 c0 0.38 -0.32 0.7 -0.7 0.7 l-1.5 0 c-0.38 0 -0.7 -0.32 -0.7 -0.7 l0 -13.28 c0 -0.38 0.32 -0.7 0.7 -0.7 l1.74 0 c0.22 0 0.42 0.1 0.56 0.28 l4.2 5.56 l4.12 -5.56 c0.12 -0.18 0.34 -0.28 0.56 -0.28 l1.74 0 z"></path></g><g id="SvgjsG4873" featureKey="text2" fill="#84386c" transform="matrix(4.440496117166057,0,0,4.440496117166057,-3.552397740690265,204.06750835036493)"><path d="M4.12 6 c2.28 0 3.26 1.06 3.26 3.22 l0 0.5 c0 1.44 -0.44 2.34 -1.42 2.8 l0 0.04 c1.18 0.46 1.64 1.5 1.64 2.98 l0 1.14 c0 2.16 -1.14 3.32 -3.34 3.32 l-3.46 0 l0 -14 l3.32 0 z M3.98 13.7 l-0.98 0 l0 4.3 l1.26 0 c0.74 0 1.14 -0.34 1.14 -1.38 l0 -1.22 c0 -1.3 -0.42 -1.7 -1.42 -1.7 z M4.06 8 l-1.06 0 l0 3.7 l0.86 0 c0.82 0 1.32 -0.36 1.32 -1.48 l0 -0.78 c0 -1 -0.34 -1.44 -1.12 -1.44 z M8.920000000000002 20 l0 -14 l2.2 0 l0 12 l3.62 0 l0 2 l-5.82 0 z M17.720000000000002 9.22 l0 7.56 c0 1 0.44 1.38 1.14 1.38 s1.14 -0.38 1.14 -1.38 l0 -7.56 c0 -1 -0.44 -1.38 -1.14 -1.38 s-1.14 0.38 -1.14 1.38 z M15.520000000000001 16.64 l0 -7.28 c0 -2.24 1.18 -3.52 3.34 -3.52 s3.34 1.28 3.34 3.52 l0 7.28 c0 2.24 -1.18 3.52 -3.34 3.52 s-3.34 -1.28 -3.34 -3.52 z M27.92 14.780000000000001 l2.08 0 l0 1.86 c0 2.24 -1.12 3.52 -3.28 3.52 s-3.28 -1.28 -3.28 -3.52 l0 -7.28 c0 -2.24 1.12 -3.52 3.28 -3.52 s3.28 1.28 3.28 3.52 l0 1.36 l-2.08 0 l0 -1.5 c0 -1 -0.44 -1.38 -1.14 -1.38 s-1.14 0.38 -1.14 1.38 l0 7.56 c0 1 0.44 1.36 1.14 1.36 s1.14 -0.36 1.14 -1.36 l0 -2 z M36.36 20 l-2.14 -5.58 l-0.68 1.28 l0 4.3 l-2.2 0 l0 -14 l2.2 0 l0 6.06 l0.04 0 l2.84 -6.06 l2.2 0 l-3.06 6.24 l3.06 7.76 l-2.26 0 z M39.34 9.36 c0 -2.24 1.1 -3.52 3.24 -3.52 s3.24 1.28 3.24 3.52 l0 0.44 l-2.08 0 l0 -0.58 c0 -1 -0.4 -1.38 -1.1 -1.38 s-1.1 0.38 -1.1 1.38 c0 1.02 0.44 1.78 1.88 3.04 c1.84 1.62 2.42 2.78 2.42 4.38 c0 2.24 -1.12 3.52 -3.28 3.52 s-3.28 -1.28 -3.28 -3.52 l0 -0.86 l2.08 0 l0 1 c0 1 0.44 1.36 1.14 1.36 s1.14 -0.36 1.14 -1.36 c0 -1.02 -0.44 -1.78 -1.88 -3.04 c-1.84 -1.62 -2.42 -2.78 -2.42 -4.38 z"></path></g>
			</g>
		</svg>
	